# xmcd CD database file generated by Grip 3.2.0
# 
# Track frame offsets:
#       150
#       24173
#       49608
#       72510
#       79905
#       94673
#       124818
#       156163
#       170595
#       188583
#       214883
#       241303
#       267143
# 
# Disc length: 3924 seconds
# 
# Revision: 8
# Processed by: cddbd v1.5.2PL0 Copyright (c) Steve Scherf et al.
# Submitted via: Grip 3.2.0
# 
DISCID=ab0f520d
DTITLE=Various Artist - SWF-Bluesfestival 1981-1991 [CD 1)
DYEAR=1992
DGENRE=Blues
TTITLE0=Walter "Wolfman" Washington - Ain't That Lovin' You
TTITLE1=Jonny Adams - The Lover and the Married Woman
TTITLE2=Buddy Ace and His Blues Band - Root Doctor
TTITLE3=Buddy Ace and His Blues Band - I Kicked the Habit
TTITLE4=Frankfurt City Blues Band and Friends - Days of Old
TTITLE5=Kanika Kress and Blues Company - Forty Days and Fourty Nights
TTITLE6=International Blues Duo - Saxophone Sermon
TTITLE7=Hans Theessink and Jon Sass - Hesitation Blues
TTITLE8=Sweet Mama - Feelin' Good
TTITLE9=Lahnstein Blues All Stars - Train to Mexico
TTITLE10=Johnny Heartsman and Blues Company - I'd Rather Drink Muddy Water
TTITLE11=Taildragger and Mojo Bluesband - Betty
TTITLE12=Katie Webster and Black Cat Bone - Two Fisted Mama
EXTD=
EXTT0=
EXTT1=
EXTT2=
EXTT3=
EXTT4=
EXTT5=
EXTT6=
EXTT7=
EXTT8=
EXTT9=
EXTT10=
EXTT11=
EXTT12=
PLAYORDER=
